<?xml version="1.0" encoding="UTF-8"?>
<svg xmlns="http://www.w3.org/2000/svg" width="172" height="86" viewBox="0 0 172 86" fill="none">
  <path d="M55.2507 45.544H37.3934L28.0631 29.1078H19.4743V45.544H3.22357V0.375488H36.4666C40.2358 0.375488 43.3253 0.746229 45.7969 1.5495C48.2685 2.29098 50.3693 4.0211 51.9759 6.61627C53.5206 9.08787 54.2621 11.8066 54.2621 14.7108C54.2621 15.4522 54.2003 16.2555 54.1385 16.9352C54.0767 17.6767 53.8296 18.6035 53.397 19.7775C52.9645 20.9515 52.4084 22.002 51.7287 22.9288C51.049 23.8557 49.9986 24.7825 48.6392 25.5858C47.2798 26.4509 45.7351 27.0688 43.8814 27.4395L55.2507 45.544ZM19.4743 10.5708V18.9125H31.647C34.5511 18.9125 36.4666 18.3564 37.3316 17.3059C37.9495 16.5645 38.1967 15.6994 38.1967 14.7726C38.1967 13.8457 37.9495 13.1042 37.517 12.4863C36.6519 11.2505 35.1072 10.6326 32.8828 10.6326H19.4743V10.5708Z" fill="#D82400"></path>
  <path d="M118.029 0.376221H143.672C147.132 0.376221 150.222 0.623379 152.879 1.1177C155.536 1.61202 157.76 2.3535 159.552 3.34214C161.282 4.33078 162.703 5.25763 163.816 6.30806C164.928 7.2967 165.916 8.47071 166.843 9.76829C169.5 13.5375 170.798 18.1099 170.798 23.4857C170.798 32.507 167.523 38.7478 160.973 42.3316C158.811 43.5056 156.71 44.3089 154.609 44.8032C152.508 45.2975 149.851 45.5447 146.7 45.5447H118.029V0.376221ZM133.847 35.2876H142.374C144.722 35.2876 146.761 34.9168 148.492 34.1753C150.222 33.4339 151.458 32.5688 152.323 31.642C153.126 30.7151 153.744 29.5411 154.238 28.2435C154.671 26.8841 154.918 25.8955 154.98 25.2158C155.041 24.5361 155.103 23.8564 155.103 23.0531C155.103 18.7896 153.744 15.6383 150.963 13.5375C148.862 11.9309 145.896 11.1277 141.942 11.1277H133.971V35.2876H133.847Z" fill="#D82400"></path>
  <path d="M109.565 0.128662H61.8013V10.8183H109.565V0.128662Z" fill="#D82400"></path>
  <path d="M109.565 17.5522H61.8013V28.2419H109.565V17.5522Z" fill="#D82400"></path>
  <path d="M109.565 34.978H61.8013V45.6677H109.565V34.978Z" fill="#D82400"></path>
  <path d="M17.1271 80.0238L15.9531 85.276H0.0112915L5.4488 61.425H12.9254L8.66189 79.962H17.1271V80.0238Z" fill="#D82400"></path>
  <path d="M42.0285 85.276H34.3048L34.243 81.8157H27.2607L25.2216 85.276H16.6946L31.1535 61.425H39.4952L42.0285 85.276ZM29.7323 76.6254H34.1194C34.0576 72.8562 33.9958 70.0756 33.9341 68.4073L29.7323 76.6254Z" fill="#D82400"></path>
  <path d="M81.0789 61.425L68.7827 85.276H60.8735L61.1207 71.8675L55.1889 85.276H47.2798L46.3529 61.425H53.8913L54.2002 75.7603L59.6996 61.425H66.8672L66.1257 75.7603L72.6755 61.425H81.0789Z" fill="#D82400"></path>
  <path d="M104.436 61.425L93.1285 75.9457L90.9658 85.2142H83.4893L85.7755 75.2042L80.5851 61.425H88.6796L90.7187 68.7781L95.6001 61.425H104.436Z" fill="#D82400"></path>
  <path d="M124.084 61.425L122.91 66.6772H112.159L111.294 70.3846H121.674L120.5 75.6367H110.12L109.131 79.962H121.612L120.438 85.276H100.48L105.918 61.425H124.084Z" fill="#D82400"></path>
  <path d="M128.534 61.425H137.927C140.151 61.425 141.757 61.4868 142.746 61.6722C144.291 61.9194 145.527 62.6608 146.454 63.8966C147.38 65.0707 147.813 66.5536 147.813 68.2837C147.813 70.1992 147.319 71.8058 146.268 73.1033C145.774 73.7212 145.218 74.2156 144.662 74.5863C144.106 74.9571 143.24 75.3278 142.066 75.7603L146.33 85.2142H138.297L135.146 76.6872H132.427L130.45 85.2142H123.035L128.534 61.425ZM134.837 66.4918L133.601 71.8675H136.876C139.409 71.8675 140.707 70.8789 140.707 68.9016C140.707 68.0366 140.46 67.4187 139.904 67.0479C139.348 66.6772 138.483 66.4918 137.247 66.4918H134.837Z" fill="#D82400"></path>
  <path d="M171.788 65.8121L166.227 69.5813C165.3 67.4186 163.57 66.3682 161.036 66.3682C159.121 66.3682 158.194 66.9243 158.194 67.9747C158.194 68.4072 158.379 68.7162 158.688 68.9634C158.997 69.2105 159.615 69.4577 160.48 69.7666L163.137 70.6317C165.485 71.3732 167.215 72.2382 168.451 73.2269C169.625 74.2155 170.243 75.6367 170.243 77.5522C170.243 80.0855 169.193 82.1246 167.154 83.6694C165.115 85.2141 162.396 85.9556 158.936 85.9556C153.374 85.9556 149.482 84.1019 147.257 80.4563L153.066 76.5017C153.436 77.6757 154.178 78.6644 155.352 79.4059C156.526 80.1473 157.762 80.5181 159.183 80.5181C160.11 80.5181 160.851 80.3327 161.345 79.962C161.902 79.5912 162.149 79.0969 162.149 78.479C162.149 77.9847 161.963 77.614 161.531 77.305C161.098 76.9961 160.357 76.6871 159.183 76.2546L157.02 75.5749C156.34 75.3277 155.784 75.1424 155.414 75.0188C154.981 74.8334 154.487 74.5862 153.807 74.2155C153.127 73.8448 152.633 73.4122 152.262 72.9797C151.892 72.5472 151.521 71.9911 151.212 71.2496C150.903 70.5699 150.779 69.7666 150.779 68.9016C150.779 66.4918 151.706 64.5145 153.622 63.0933C155.537 61.6721 158.132 60.9307 161.345 60.9307C163.817 60.9307 165.918 61.3014 167.586 62.1047C169.193 62.8461 170.614 64.0819 171.788 65.8121Z" fill="#D82400"></path>
</svg>
