<?xml version="1.0" encoding="UTF-8"?>
<svg xmlns="http://www.w3.org/2000/svg" width="230" height="22" viewBox="0 0 230 22" fill="none">
  <path d="M24.4288 21.4348H16.2661L11.998 13.9454H8.05005V21.4348H0.580933V0.825684H15.8393C17.5465 0.825684 18.987 0.985032 20.1073 1.35685C21.2277 1.72866 22.188 2.47229 22.9349 3.64085C23.6285 4.75629 24.0019 6.03108 24.0019 7.35898C24.0019 7.73079 24.0019 8.04949 23.9486 8.36818C23.8952 8.68688 23.7885 9.11181 23.6285 9.64297C23.4684 10.1741 23.2017 10.6522 22.8816 11.0771C22.5615 11.502 22.0813 11.927 21.4945 12.2988C20.8543 12.6706 20.1607 12.9893 19.3071 13.1486L24.4288 21.4348ZM8.05005 5.49992V9.27115H13.5985C14.9323 9.27115 15.7859 9.00557 16.2127 8.52753C16.4795 8.20883 16.6395 7.78391 16.6395 7.35898C16.6395 6.93405 16.5328 6.61535 16.3194 6.29666C15.946 5.71238 15.1991 5.4468 14.1854 5.4468H8.05005V5.49992Z" fill="#D82400"></path>
  <path d="M53.1844 0.825684H64.9216C66.5221 0.825684 67.9093 0.931922 69.1364 1.1975C70.3634 1.40997 71.3771 1.78178 72.1774 2.20671C72.9776 2.63164 73.6178 3.10968 74.1513 3.53461C74.6315 4.01266 75.1116 4.54382 75.5385 5.1281C76.7655 6.88093 77.3524 8.95245 77.3524 11.3958C77.3524 15.4857 75.8585 18.354 72.8175 20.0006C71.8572 20.5318 70.8436 20.9036 69.8832 21.1161C68.9229 21.3285 67.6959 21.4348 66.2554 21.4348H53.1311V0.825684H53.1844ZM60.4402 16.7605H64.3348C65.4018 16.7605 66.3621 16.6012 67.109 16.2294C67.9093 15.9107 68.4961 15.4858 68.8696 15.0608C69.2431 14.6359 69.5098 14.1047 69.7232 13.5204C69.9366 12.883 70.0433 12.4581 70.0967 12.1394C70.15 11.8207 70.15 11.502 70.15 11.1833C70.15 9.21804 69.5098 7.78391 68.2294 6.82782C67.2691 6.08419 65.8819 5.71238 64.1214 5.71238H60.4402V16.7605Z" fill="#D82400"></path>
  <path d="M49.2906 0.719482H27.4168V5.60616H49.2906V0.719482Z" fill="#D82400"></path>
  <path d="M49.2906 8.68677H27.4168V13.5734H49.2906V8.68677Z" fill="#D82400"></path>
  <path d="M49.2906 16.6011H27.4168V21.4878H49.2906V16.6011Z" fill="#D82400"></path>
  <path d="M101.414 16.6539L100.453 21.0094H87.2224L91.7038 1.35645H97.8925L94.3714 16.6539H101.414Z" fill="#D82400"></path>
  <path d="M122.007 21.0097H115.605L115.552 18.1945H109.736L108.082 21.0097H100.987L112.937 1.35669H119.873L122.007 21.0097ZM111.817 13.8921H115.445C115.392 10.7583 115.338 8.52738 115.285 7.09324L111.817 13.8921Z" fill="#D82400"></path>
  <path d="M154.444 1.35669L144.254 21.0097H137.692L137.905 9.90839L132.997 21.0097H126.435L125.688 1.35669H131.93L132.197 13.2016L136.731 1.35669H142.6L141.96 13.2016L147.402 1.35669H154.444Z" fill="#D82400"></path>
  <path d="M173.811 1.35669L164.421 13.3609L162.607 21.0097H156.419L158.339 12.7235L154.071 1.35669H160.74L162.447 7.41193L166.502 1.35669H173.811Z" fill="#D82400"></path>
  <path d="M190.029 1.35669L189.069 5.71222H180.16L179.466 8.73983H188.055L187.095 13.0422H178.506L177.652 16.6542H187.949L186.988 21.0097H170.45L174.931 1.35669H190.029Z" fill="#D82400"></path>
  <path d="M193.764 1.35669H201.553C203.42 1.35669 204.754 1.4098 205.554 1.56915C206.835 1.78162 207.849 2.41902 208.649 3.37511C209.396 4.38432 209.769 5.60599 209.769 6.98701C209.769 8.58049 209.342 9.90839 208.489 10.9707C208.062 11.4488 207.635 11.8737 207.155 12.1924C206.675 12.5111 205.928 12.8298 205.021 13.1485L208.542 20.9565H201.873L199.259 13.8921H197.018L195.418 20.9565H189.282L193.764 1.35669ZM198.992 5.49976L197.979 9.96151H200.7C202.834 9.96151 203.901 9.16477 203.901 7.51817C203.901 6.82766 203.687 6.2965 203.207 5.9778C202.727 5.6591 202.033 5.49976 201.02 5.49976H198.992Z" fill="#D82400"></path>
  <path d="M229.616 4.96847L224.974 8.0492C224.174 6.29637 222.733 5.39339 220.653 5.39339C219.106 5.39339 218.305 5.81832 218.305 6.7213C218.305 7.04 218.412 7.30558 218.679 7.51804C218.945 7.7305 219.426 7.94296 220.173 8.20854L222.36 8.89906C224.281 9.53646 225.774 10.227 226.735 11.0237C227.748 11.8205 228.229 12.989 228.229 14.5825C228.229 16.7071 227.375 18.3537 225.668 19.6285C223.96 20.9033 221.72 21.5407 218.892 21.5407C214.304 21.5407 211.05 20.0534 209.236 17.0258L214.037 13.7326C214.357 14.7418 214.944 15.4855 215.904 16.1229C216.865 16.7071 217.932 17.0258 219.105 17.0258C219.852 17.0258 220.493 16.8665 220.919 16.6009C221.346 16.2822 221.613 15.9104 221.613 15.3792C221.613 14.9543 221.453 14.6356 221.133 14.37C220.813 14.1044 220.119 13.8389 219.159 13.5202L217.345 12.9359C216.811 12.7765 216.331 12.6172 216.011 12.4578C215.691 12.3516 215.211 12.086 214.677 11.7673C214.144 11.4486 213.717 11.1299 213.397 10.7581C213.077 10.3863 212.81 9.96138 212.543 9.37711C212.277 8.79283 212.17 8.15543 212.17 7.46492C212.17 5.44651 212.97 3.85302 214.517 2.68447C216.118 1.51591 218.252 0.931641 220.919 0.931641C222.947 0.931641 224.707 1.25033 226.094 1.94084C227.482 2.47201 228.655 3.53434 229.616 4.96847Z" fill="#D82400"></path>
</svg>
